<mxfile host="app.diagrams.net" modified="2024-02-09T13:59:58.326Z" agent="Mozilla/5.0 (X11; Linux x86_64; rv:109.0) Gecko/20100101 Firefox/115.0" etag="FWavxOEtKqXFldrq2_Ah" version="23.1.2" type="github">
  <diagram name="Page-1" id="VPgZQEQ3rQgp3owbAHm3">
    <mxGraphModel dx="1658" dy="1264" grid="0" gridSize="10" guides="1" tooltips="1" connect="1" arrows="1" fold="1" page="0" pageScale="1" pageWidth="827" pageHeight="1169" background="#ffffff" math="0" shadow="0">
      <root>
        <mxCell id="0" />
        <mxCell id="1" parent="0" />
        <mxCell id="kP8cCrtkMhNPEK93O_RV-146" value="" style="rounded=0;whiteSpace=wrap;html=1;" parent="1" vertex="1">
          <mxGeometry x="78" y="-250" width="722" height="280" as="geometry" />
        </mxCell>
        <mxCell id="kP8cCrtkMhNPEK93O_RV-37" value="" style="rounded=0;whiteSpace=wrap;html=1;" parent="1" vertex="1">
          <mxGeometry x="109.38" y="360" width="210" height="170" as="geometry" />
        </mxCell>
        <mxCell id="kP8cCrtkMhNPEK93O_RV-1" value="0x65" style="rounded=0;whiteSpace=wrap;html=1;" parent="1" vertex="1">
          <mxGeometry x="180" y="220" width="60" height="60" as="geometry" />
        </mxCell>
        <mxCell id="kP8cCrtkMhNPEK93O_RV-2" value="0xD3" style="rounded=0;whiteSpace=wrap;html=1;" parent="1" vertex="1">
          <mxGeometry x="240" y="220" width="60" height="60" as="geometry" />
        </mxCell>
        <mxCell id="kP8cCrtkMhNPEK93O_RV-9" value="0xAF" style="rounded=0;whiteSpace=wrap;html=1;" parent="1" vertex="1">
          <mxGeometry x="300" y="220" width="60" height="60" as="geometry" />
        </mxCell>
        <mxCell id="kP8cCrtkMhNPEK93O_RV-10" value="0x8E" style="rounded=0;whiteSpace=wrap;html=1;" parent="1" vertex="1">
          <mxGeometry x="360" y="220" width="60" height="60" as="geometry" />
        </mxCell>
        <mxCell id="kP8cCrtkMhNPEK93O_RV-11" value="0x03" style="rounded=0;whiteSpace=wrap;html=1;" parent="1" vertex="1">
          <mxGeometry x="420" y="220" width="60" height="60" as="geometry" />
        </mxCell>
        <mxCell id="kP8cCrtkMhNPEK93O_RV-12" value="0x42" style="rounded=0;whiteSpace=wrap;html=1;" parent="1" vertex="1">
          <mxGeometry x="480" y="220" width="60" height="60" as="geometry" />
        </mxCell>
        <mxCell id="kP8cCrtkMhNPEK93O_RV-13" value="0x7D" style="rounded=0;whiteSpace=wrap;html=1;" parent="1" vertex="1">
          <mxGeometry x="540" y="220" width="60" height="60" as="geometry" />
        </mxCell>
        <mxCell id="kP8cCrtkMhNPEK93O_RV-14" value="0xBB" style="rounded=0;whiteSpace=wrap;html=1;" parent="1" vertex="1">
          <mxGeometry x="600" y="220" width="60" height="60" as="geometry" />
        </mxCell>
        <mxCell id="kP8cCrtkMhNPEK93O_RV-15" value="0x5F" style="rounded=0;whiteSpace=wrap;html=1;" parent="1" vertex="1">
          <mxGeometry x="660" y="220" width="60" height="60" as="geometry" />
        </mxCell>
        <mxCell id="kP8cCrtkMhNPEK93O_RV-16" value="0x28" style="rounded=0;whiteSpace=wrap;html=1;" parent="1" vertex="1">
          <mxGeometry x="720" y="220" width="60" height="60" as="geometry" />
        </mxCell>
        <mxCell id="kP8cCrtkMhNPEK93O_RV-17" value="&lt;font style=&quot;font-size: 21px;&quot;&gt;Memory&lt;/font&gt;" style="text;html=1;strokeColor=none;fillColor=none;align=center;verticalAlign=middle;whiteSpace=wrap;rounded=0;" parent="1" vertex="1">
          <mxGeometry x="410" y="160" width="80" height="40" as="geometry" />
        </mxCell>
        <mxCell id="kP8cCrtkMhNPEK93O_RV-18" value="1" style="text;html=1;align=center;verticalAlign=middle;resizable=0;points=[];autosize=1;strokeColor=none;fillColor=none;" parent="1" vertex="1">
          <mxGeometry x="195" y="280" width="30" height="30" as="geometry" />
        </mxCell>
        <mxCell id="kP8cCrtkMhNPEK93O_RV-19" value="2" style="text;html=1;align=center;verticalAlign=middle;resizable=0;points=[];autosize=1;strokeColor=none;fillColor=none;" parent="1" vertex="1">
          <mxGeometry x="255" y="280" width="30" height="30" as="geometry" />
        </mxCell>
        <mxCell id="kP8cCrtkMhNPEK93O_RV-20" value="&lt;div&gt;3&lt;/div&gt;" style="text;html=1;align=center;verticalAlign=middle;resizable=0;points=[];autosize=1;strokeColor=none;fillColor=none;" parent="1" vertex="1">
          <mxGeometry x="315" y="280" width="30" height="30" as="geometry" />
        </mxCell>
        <mxCell id="kP8cCrtkMhNPEK93O_RV-21" value="4" style="text;html=1;align=center;verticalAlign=middle;resizable=0;points=[];autosize=1;strokeColor=none;fillColor=none;" parent="1" vertex="1">
          <mxGeometry x="375" y="280" width="30" height="30" as="geometry" />
        </mxCell>
        <mxCell id="kP8cCrtkMhNPEK93O_RV-22" value="5" style="text;html=1;align=center;verticalAlign=middle;resizable=0;points=[];autosize=1;strokeColor=none;fillColor=none;" parent="1" vertex="1">
          <mxGeometry x="435" y="280" width="30" height="30" as="geometry" />
        </mxCell>
        <mxCell id="kP8cCrtkMhNPEK93O_RV-23" value="6" style="text;html=1;align=center;verticalAlign=middle;resizable=0;points=[];autosize=1;strokeColor=none;fillColor=none;" parent="1" vertex="1">
          <mxGeometry x="495" y="280" width="30" height="30" as="geometry" />
        </mxCell>
        <mxCell id="kP8cCrtkMhNPEK93O_RV-24" value="7" style="text;html=1;align=center;verticalAlign=middle;resizable=0;points=[];autosize=1;strokeColor=none;fillColor=none;" parent="1" vertex="1">
          <mxGeometry x="555" y="280" width="30" height="30" as="geometry" />
        </mxCell>
        <mxCell id="kP8cCrtkMhNPEK93O_RV-25" value="8" style="text;html=1;align=center;verticalAlign=middle;resizable=0;points=[];autosize=1;strokeColor=none;fillColor=none;" parent="1" vertex="1">
          <mxGeometry x="615" y="280" width="30" height="30" as="geometry" />
        </mxCell>
        <mxCell id="kP8cCrtkMhNPEK93O_RV-26" value="9" style="text;html=1;align=center;verticalAlign=middle;resizable=0;points=[];autosize=1;strokeColor=none;fillColor=none;" parent="1" vertex="1">
          <mxGeometry x="675" y="280" width="30" height="30" as="geometry" />
        </mxCell>
        <mxCell id="kP8cCrtkMhNPEK93O_RV-27" value="A" style="text;html=1;align=center;verticalAlign=middle;resizable=0;points=[];autosize=1;strokeColor=none;fillColor=none;" parent="1" vertex="1">
          <mxGeometry x="735" y="280" width="30" height="30" as="geometry" />
        </mxCell>
        <mxCell id="kP8cCrtkMhNPEK93O_RV-28" value="0x34" style="rounded=0;whiteSpace=wrap;html=1;" parent="1" vertex="1">
          <mxGeometry x="120" y="220" width="60" height="60" as="geometry" />
        </mxCell>
        <mxCell id="kP8cCrtkMhNPEK93O_RV-29" value="0" style="text;html=1;align=center;verticalAlign=middle;resizable=0;points=[];autosize=1;strokeColor=none;fillColor=none;" parent="1" vertex="1">
          <mxGeometry x="135" y="280" width="30" height="30" as="geometry" />
        </mxCell>
        <mxCell id="kP8cCrtkMhNPEK93O_RV-30" value="&lt;font style=&quot;font-size: 15px;&quot;&gt;EAX = 3&lt;/font&gt;" style="text;html=1;strokeColor=none;fillColor=none;align=center;verticalAlign=middle;whiteSpace=wrap;rounded=0;" parent="1" vertex="1">
          <mxGeometry x="115.63" y="370" width="60" height="30" as="geometry" />
        </mxCell>
        <mxCell id="kP8cCrtkMhNPEK93O_RV-32" value="&lt;font style=&quot;font-size: 15px;&quot;&gt;EBX = 1&lt;/font&gt;" style="text;html=1;strokeColor=none;fillColor=none;align=center;verticalAlign=middle;whiteSpace=wrap;rounded=0;" parent="1" vertex="1">
          <mxGeometry x="115.63" y="410" width="60" height="30" as="geometry" />
        </mxCell>
        <mxCell id="kP8cCrtkMhNPEK93O_RV-33" value="&lt;font style=&quot;font-size: 15px;&quot;&gt;locationToStoreString = 3&lt;br&gt;&lt;/font&gt;" style="text;html=1;strokeColor=none;fillColor=none;align=center;verticalAlign=middle;whiteSpace=wrap;rounded=0;" parent="1" vertex="1">
          <mxGeometry x="90" y="110" width="210" height="30" as="geometry" />
        </mxCell>
        <mxCell id="kP8cCrtkMhNPEK93O_RV-34" value="&lt;font style=&quot;font-size: 15px;&quot;&gt;ECX = locationToStoreString&lt;br&gt;&lt;/font&gt;" style="text;html=1;strokeColor=none;fillColor=none;align=center;verticalAlign=middle;whiteSpace=wrap;rounded=0;" parent="1" vertex="1">
          <mxGeometry x="115.63" y="450" width="197.5" height="30" as="geometry" />
        </mxCell>
        <mxCell id="kP8cCrtkMhNPEK93O_RV-35" value="&lt;font style=&quot;font-size: 15px;&quot;&gt;EDX = 5&lt;br&gt;&lt;/font&gt;" style="text;html=1;strokeColor=none;fillColor=none;align=center;verticalAlign=middle;whiteSpace=wrap;rounded=0;" parent="1" vertex="1">
          <mxGeometry x="115.63" y="490" width="60" height="30" as="geometry" />
        </mxCell>
        <mxCell id="kP8cCrtkMhNPEK93O_RV-38" value="" style="rounded=0;whiteSpace=wrap;html=1;" parent="1" vertex="1">
          <mxGeometry x="580.63" y="360" width="210" height="170" as="geometry" />
        </mxCell>
        <mxCell id="kP8cCrtkMhNPEK93O_RV-39" value="&lt;font style=&quot;font-size: 15px;&quot;&gt;EAX = 5 (Length of string)&lt;br&gt;&lt;/font&gt;" style="text;html=1;strokeColor=none;fillColor=none;align=center;verticalAlign=middle;whiteSpace=wrap;rounded=0;" parent="1" vertex="1">
          <mxGeometry x="586.88" y="370" width="183.12" height="30" as="geometry" />
        </mxCell>
        <mxCell id="kP8cCrtkMhNPEK93O_RV-40" value="&lt;font style=&quot;font-size: 15px;&quot;&gt;EBX = 1&lt;/font&gt;" style="text;html=1;strokeColor=none;fillColor=none;align=center;verticalAlign=middle;whiteSpace=wrap;rounded=0;" parent="1" vertex="1">
          <mxGeometry x="586.88" y="410" width="60" height="30" as="geometry" />
        </mxCell>
        <mxCell id="kP8cCrtkMhNPEK93O_RV-41" value="&lt;font style=&quot;font-size: 15px;&quot;&gt;ECX = locationToStoreString&lt;br&gt;&lt;/font&gt;" style="text;html=1;strokeColor=none;fillColor=none;align=center;verticalAlign=middle;whiteSpace=wrap;rounded=0;" parent="1" vertex="1">
          <mxGeometry x="586.88" y="450" width="197.5" height="30" as="geometry" />
        </mxCell>
        <mxCell id="kP8cCrtkMhNPEK93O_RV-42" value="&lt;font style=&quot;font-size: 15px;&quot;&gt;EDX = 5&lt;br&gt;&lt;/font&gt;" style="text;html=1;strokeColor=none;fillColor=none;align=center;verticalAlign=middle;whiteSpace=wrap;rounded=0;" parent="1" vertex="1">
          <mxGeometry x="586.88" y="490" width="60" height="30" as="geometry" />
        </mxCell>
        <mxCell id="kP8cCrtkMhNPEK93O_RV-43" value="Before Kernel Call" style="text;html=1;strokeColor=none;fillColor=none;align=center;verticalAlign=middle;whiteSpace=wrap;rounded=0;" parent="1" vertex="1">
          <mxGeometry x="140.63" y="330" width="135" height="30" as="geometry" />
        </mxCell>
        <mxCell id="kP8cCrtkMhNPEK93O_RV-44" value="After Kernel Call" style="text;html=1;strokeColor=none;fillColor=none;align=center;verticalAlign=middle;whiteSpace=wrap;rounded=0;" parent="1" vertex="1">
          <mxGeometry x="610.63" y="330" width="135" height="30" as="geometry" />
        </mxCell>
        <mxCell id="kP8cCrtkMhNPEK93O_RV-45" value="0x65" style="rounded=0;whiteSpace=wrap;html=1;" parent="1" vertex="1">
          <mxGeometry x="165" y="-80" width="60" height="60" as="geometry" />
        </mxCell>
        <mxCell id="kP8cCrtkMhNPEK93O_RV-46" value="&lt;div&gt;H&lt;/div&gt;0x48" style="rounded=0;whiteSpace=wrap;html=1;" parent="1" vertex="1">
          <mxGeometry x="225" y="-80" width="60" height="60" as="geometry" />
        </mxCell>
        <mxCell id="kP8cCrtkMhNPEK93O_RV-47" value="&lt;div&gt;E&lt;/div&gt;0x45" style="rounded=0;whiteSpace=wrap;html=1;" parent="1" vertex="1">
          <mxGeometry x="285" y="-80" width="60" height="60" as="geometry" />
        </mxCell>
        <mxCell id="kP8cCrtkMhNPEK93O_RV-48" value="&lt;div&gt;L&lt;/div&gt;0x4C" style="rounded=0;whiteSpace=wrap;html=1;" parent="1" vertex="1">
          <mxGeometry x="345" y="-80" width="60" height="60" as="geometry" />
        </mxCell>
        <mxCell id="kP8cCrtkMhNPEK93O_RV-49" value="&lt;div&gt;L&lt;/div&gt;0x4C" style="rounded=0;whiteSpace=wrap;html=1;" parent="1" vertex="1">
          <mxGeometry x="405" y="-80" width="60" height="60" as="geometry" />
        </mxCell>
        <mxCell id="kP8cCrtkMhNPEK93O_RV-50" value="&lt;div&gt;O&lt;/div&gt;0x4F" style="rounded=0;whiteSpace=wrap;html=1;" parent="1" vertex="1">
          <mxGeometry x="465" y="-80" width="60" height="60" as="geometry" />
        </mxCell>
        <mxCell id="kP8cCrtkMhNPEK93O_RV-51" value="&lt;div&gt;&lt;br&gt;&lt;/div&gt;&lt;div&gt;0x00&lt;br&gt;&lt;/div&gt;" style="rounded=0;whiteSpace=wrap;html=1;" parent="1" vertex="1">
          <mxGeometry x="525" y="-80" width="60" height="60" as="geometry" />
        </mxCell>
        <mxCell id="kP8cCrtkMhNPEK93O_RV-52" value="0xBB" style="rounded=0;whiteSpace=wrap;html=1;" parent="1" vertex="1">
          <mxGeometry x="585" y="-80" width="60" height="60" as="geometry" />
        </mxCell>
        <mxCell id="kP8cCrtkMhNPEK93O_RV-53" value="0x5F" style="rounded=0;whiteSpace=wrap;html=1;" parent="1" vertex="1">
          <mxGeometry x="645" y="-80" width="60" height="60" as="geometry" />
        </mxCell>
        <mxCell id="kP8cCrtkMhNPEK93O_RV-54" value="0x28" style="rounded=0;whiteSpace=wrap;html=1;" parent="1" vertex="1">
          <mxGeometry x="705" y="-80" width="60" height="60" as="geometry" />
        </mxCell>
        <mxCell id="kP8cCrtkMhNPEK93O_RV-55" value="&lt;font style=&quot;font-size: 21px;&quot;&gt;Memory&lt;/font&gt;" style="text;html=1;strokeColor=none;fillColor=none;align=center;verticalAlign=middle;whiteSpace=wrap;rounded=0;" parent="1" vertex="1">
          <mxGeometry x="395" y="-140" width="80" height="40" as="geometry" />
        </mxCell>
        <mxCell id="kP8cCrtkMhNPEK93O_RV-56" value="1" style="text;html=1;align=center;verticalAlign=middle;resizable=0;points=[];autosize=1;strokeColor=none;fillColor=none;" parent="1" vertex="1">
          <mxGeometry x="180" y="-20" width="30" height="30" as="geometry" />
        </mxCell>
        <mxCell id="kP8cCrtkMhNPEK93O_RV-57" value="2" style="text;html=1;align=center;verticalAlign=middle;resizable=0;points=[];autosize=1;strokeColor=none;fillColor=none;" parent="1" vertex="1">
          <mxGeometry x="240" y="-20" width="30" height="30" as="geometry" />
        </mxCell>
        <mxCell id="kP8cCrtkMhNPEK93O_RV-58" value="&lt;div&gt;3&lt;/div&gt;" style="text;html=1;align=center;verticalAlign=middle;resizable=0;points=[];autosize=1;strokeColor=none;fillColor=none;" parent="1" vertex="1">
          <mxGeometry x="300" y="-20" width="30" height="30" as="geometry" />
        </mxCell>
        <mxCell id="kP8cCrtkMhNPEK93O_RV-59" value="4" style="text;html=1;align=center;verticalAlign=middle;resizable=0;points=[];autosize=1;strokeColor=none;fillColor=none;" parent="1" vertex="1">
          <mxGeometry x="360" y="-20" width="30" height="30" as="geometry" />
        </mxCell>
        <mxCell id="kP8cCrtkMhNPEK93O_RV-60" value="5" style="text;html=1;align=center;verticalAlign=middle;resizable=0;points=[];autosize=1;strokeColor=none;fillColor=none;" parent="1" vertex="1">
          <mxGeometry x="420" y="-20" width="30" height="30" as="geometry" />
        </mxCell>
        <mxCell id="kP8cCrtkMhNPEK93O_RV-61" value="6" style="text;html=1;align=center;verticalAlign=middle;resizable=0;points=[];autosize=1;strokeColor=none;fillColor=none;" parent="1" vertex="1">
          <mxGeometry x="480" y="-20" width="30" height="30" as="geometry" />
        </mxCell>
        <mxCell id="kP8cCrtkMhNPEK93O_RV-62" value="7" style="text;html=1;align=center;verticalAlign=middle;resizable=0;points=[];autosize=1;strokeColor=none;fillColor=none;" parent="1" vertex="1">
          <mxGeometry x="540" y="-20" width="30" height="30" as="geometry" />
        </mxCell>
        <mxCell id="kP8cCrtkMhNPEK93O_RV-63" value="8" style="text;html=1;align=center;verticalAlign=middle;resizable=0;points=[];autosize=1;strokeColor=none;fillColor=none;" parent="1" vertex="1">
          <mxGeometry x="600" y="-20" width="30" height="30" as="geometry" />
        </mxCell>
        <mxCell id="kP8cCrtkMhNPEK93O_RV-64" value="9" style="text;html=1;align=center;verticalAlign=middle;resizable=0;points=[];autosize=1;strokeColor=none;fillColor=none;" parent="1" vertex="1">
          <mxGeometry x="660" y="-20" width="30" height="30" as="geometry" />
        </mxCell>
        <mxCell id="kP8cCrtkMhNPEK93O_RV-65" value="A" style="text;html=1;align=center;verticalAlign=middle;resizable=0;points=[];autosize=1;strokeColor=none;fillColor=none;" parent="1" vertex="1">
          <mxGeometry x="720" y="-20" width="30" height="30" as="geometry" />
        </mxCell>
        <mxCell id="kP8cCrtkMhNPEK93O_RV-66" value="0x34" style="rounded=0;whiteSpace=wrap;html=1;" parent="1" vertex="1">
          <mxGeometry x="105" y="-80" width="60" height="60" as="geometry" />
        </mxCell>
        <mxCell id="kP8cCrtkMhNPEK93O_RV-67" value="0" style="text;html=1;align=center;verticalAlign=middle;resizable=0;points=[];autosize=1;strokeColor=none;fillColor=none;" parent="1" vertex="1">
          <mxGeometry x="120" y="-20" width="30" height="30" as="geometry" />
        </mxCell>
        <mxCell id="kP8cCrtkMhNPEK93O_RV-68" value="&lt;font style=&quot;font-size: 15px;&quot;&gt;String = &quot;HELLO&quot;, 0&lt;br&gt;&lt;/font&gt;" style="text;html=1;strokeColor=none;fillColor=none;align=center;verticalAlign=middle;whiteSpace=wrap;rounded=0;" parent="1" vertex="1">
          <mxGeometry x="135.63" y="-180" width="140" height="30" as="geometry" />
        </mxCell>
        <mxCell id="kP8cCrtkMhNPEK93O_RV-69" value="&lt;font style=&quot;font-size: 15px;&quot;&gt;.data&lt;/font&gt;" style="text;html=1;align=center;verticalAlign=middle;resizable=0;points=[];autosize=1;strokeColor=none;fillColor=none;" parent="1" vertex="1">
          <mxGeometry x="135.63" y="-240" width="60" height="30" as="geometry" />
        </mxCell>
        <mxCell id="kP8cCrtkMhNPEK93O_RV-70" value="" style="shape=flexArrow;endArrow=classic;html=1;rounded=0;" parent="1" edge="1">
          <mxGeometry width="50" height="50" relative="1" as="geometry">
            <mxPoint x="355.63" y="444.71" as="sourcePoint" />
            <mxPoint x="540.63" y="445" as="targetPoint" />
          </mxGeometry>
        </mxCell>
        <mxCell id="kP8cCrtkMhNPEK93O_RV-71" value="&lt;font style=&quot;font-size: 18px;&quot;&gt;int 0x80&lt;/font&gt;" style="text;html=1;align=center;verticalAlign=middle;resizable=0;points=[];autosize=1;strokeColor=none;fillColor=none;" parent="1" vertex="1">
          <mxGeometry x="390.63" y="400" width="90" height="40" as="geometry" />
        </mxCell>
        <mxCell id="kP8cCrtkMhNPEK93O_RV-76" style="edgeStyle=orthogonalEdgeStyle;rounded=0;orthogonalLoop=1;jettySize=auto;html=1;exitX=0.17;exitY=0.933;exitDx=0;exitDy=0;entryX=0.5;entryY=0;entryDx=0;entryDy=0;exitPerimeter=0;" parent="1" source="kP8cCrtkMhNPEK93O_RV-72" target="kP8cCrtkMhNPEK93O_RV-75" edge="1">
          <mxGeometry relative="1" as="geometry" />
        </mxCell>
        <mxCell id="kP8cCrtkMhNPEK93O_RV-78" style="edgeStyle=orthogonalEdgeStyle;rounded=0;orthogonalLoop=1;jettySize=auto;html=1;exitX=0.348;exitY=1.067;exitDx=0;exitDy=0;entryX=0.5;entryY=0;entryDx=0;entryDy=0;exitPerimeter=0;" parent="1" source="kP8cCrtkMhNPEK93O_RV-72" target="kP8cCrtkMhNPEK93O_RV-77" edge="1">
          <mxGeometry relative="1" as="geometry" />
        </mxCell>
        <mxCell id="kP8cCrtkMhNPEK93O_RV-80" style="edgeStyle=orthogonalEdgeStyle;rounded=0;orthogonalLoop=1;jettySize=auto;html=1;exitX=1;exitY=0.5;exitDx=0;exitDy=0;entryX=0.5;entryY=0;entryDx=0;entryDy=0;" parent="1" source="kP8cCrtkMhNPEK93O_RV-72" target="kP8cCrtkMhNPEK93O_RV-79" edge="1">
          <mxGeometry relative="1" as="geometry" />
        </mxCell>
        <mxCell id="kP8cCrtkMhNPEK93O_RV-82" style="edgeStyle=orthogonalEdgeStyle;rounded=0;orthogonalLoop=1;jettySize=auto;html=1;exitX=0.649;exitY=0.968;exitDx=0;exitDy=0;exitPerimeter=0;" parent="1" source="kP8cCrtkMhNPEK93O_RV-72" target="kP8cCrtkMhNPEK93O_RV-81" edge="1">
          <mxGeometry relative="1" as="geometry">
            <Array as="points">
              <mxPoint x="225" y="640" />
              <mxPoint x="375" y="640" />
            </Array>
          </mxGeometry>
        </mxCell>
        <mxCell id="kP8cCrtkMhNPEK93O_RV-72" value="mov byte [ecx+eax], 0" style="text;html=1;strokeColor=none;fillColor=none;align=center;verticalAlign=middle;whiteSpace=wrap;rounded=0;" parent="1" vertex="1">
          <mxGeometry x="137.5" y="580" width="135" height="30" as="geometry" />
        </mxCell>
        <mxCell id="kP8cCrtkMhNPEK93O_RV-73" value="&lt;div&gt;ecx = 3 (Location of string)&lt;br&gt;&lt;/div&gt;&lt;div&gt;eax = 5 (Length of string)&lt;br&gt;&lt;/div&gt;&lt;div&gt;[] = value, not pointer&lt;br&gt;&lt;/div&gt;&lt;div&gt;Final value = 8&lt;br&gt;&lt;/div&gt;" style="rounded=0;whiteSpace=wrap;html=1;" parent="1" vertex="1">
          <mxGeometry x="281.56" y="840" width="186.87" height="70" as="geometry" />
        </mxCell>
        <mxCell id="kP8cCrtkMhNPEK93O_RV-75" value="Instruction" style="rounded=0;whiteSpace=wrap;html=1;" parent="1" vertex="1">
          <mxGeometry x="18" y="740" width="120" height="60" as="geometry" />
        </mxCell>
        <mxCell id="kP8cCrtkMhNPEK93O_RV-77" value="The size of the value being moved" style="rounded=0;whiteSpace=wrap;html=1;" parent="1" vertex="1">
          <mxGeometry x="165" y="740" width="120" height="60" as="geometry" />
        </mxCell>
        <mxCell id="kP8cCrtkMhNPEK93O_RV-79" value="Null pointer we are moving" style="rounded=0;whiteSpace=wrap;html=1;" parent="1" vertex="1">
          <mxGeometry x="465" y="740" width="120" height="60" as="geometry" />
        </mxCell>
        <mxCell id="kP8cCrtkMhNPEK93O_RV-148" style="edgeStyle=orthogonalEdgeStyle;rounded=0;orthogonalLoop=1;jettySize=auto;html=1;entryX=0.5;entryY=0;entryDx=0;entryDy=0;" parent="1" source="kP8cCrtkMhNPEK93O_RV-81" target="kP8cCrtkMhNPEK93O_RV-73" edge="1">
          <mxGeometry relative="1" as="geometry" />
        </mxCell>
        <mxCell id="kP8cCrtkMhNPEK93O_RV-81" value="Location we are moving the value to" style="rounded=0;whiteSpace=wrap;html=1;" parent="1" vertex="1">
          <mxGeometry x="315" y="740" width="120" height="60" as="geometry" />
        </mxCell>
        <mxCell id="kP8cCrtkMhNPEK93O_RV-107" value="0x65" style="rounded=0;whiteSpace=wrap;html=1;" parent="1" vertex="1">
          <mxGeometry x="78" y="990" width="60" height="60" as="geometry" />
        </mxCell>
        <mxCell id="kP8cCrtkMhNPEK93O_RV-108" value="&lt;div&gt;H&lt;/div&gt;0x48" style="rounded=0;whiteSpace=wrap;html=1;" parent="1" vertex="1">
          <mxGeometry x="198" y="990" width="60" height="60" as="geometry" />
        </mxCell>
        <mxCell id="kP8cCrtkMhNPEK93O_RV-109" value="&lt;div&gt;E&lt;/div&gt;0x45" style="rounded=0;whiteSpace=wrap;html=1;" parent="1" vertex="1">
          <mxGeometry x="258" y="990" width="60" height="60" as="geometry" />
        </mxCell>
        <mxCell id="kP8cCrtkMhNPEK93O_RV-110" value="&lt;div&gt;L&lt;/div&gt;0x4C" style="rounded=0;whiteSpace=wrap;html=1;" parent="1" vertex="1">
          <mxGeometry x="318" y="990" width="60" height="60" as="geometry" />
        </mxCell>
        <mxCell id="kP8cCrtkMhNPEK93O_RV-111" value="&lt;div&gt;L&lt;/div&gt;0x4C" style="rounded=0;whiteSpace=wrap;html=1;" parent="1" vertex="1">
          <mxGeometry x="378" y="990" width="60" height="60" as="geometry" />
        </mxCell>
        <mxCell id="kP8cCrtkMhNPEK93O_RV-112" value="&lt;div&gt;O&lt;/div&gt;0x4F" style="rounded=0;whiteSpace=wrap;html=1;" parent="1" vertex="1">
          <mxGeometry x="438" y="990" width="60" height="60" as="geometry" />
        </mxCell>
        <mxCell id="kP8cCrtkMhNPEK93O_RV-113" value="0x7D" style="rounded=0;whiteSpace=wrap;html=1;" parent="1" vertex="1">
          <mxGeometry x="138" y="1160" width="60" height="60" as="geometry" />
        </mxCell>
        <mxCell id="kP8cCrtkMhNPEK93O_RV-114" value="0xBB" style="rounded=0;whiteSpace=wrap;html=1;" parent="1" vertex="1">
          <mxGeometry x="498" y="990" width="60" height="60" as="geometry" />
        </mxCell>
        <mxCell id="kP8cCrtkMhNPEK93O_RV-115" value="0x5F" style="rounded=0;whiteSpace=wrap;html=1;" parent="1" vertex="1">
          <mxGeometry x="558" y="990" width="60" height="60" as="geometry" />
        </mxCell>
        <mxCell id="kP8cCrtkMhNPEK93O_RV-143" style="edgeStyle=orthogonalEdgeStyle;rounded=0;orthogonalLoop=1;jettySize=auto;html=1;entryX=0;entryY=0.5;entryDx=0;entryDy=0;" parent="1" source="kP8cCrtkMhNPEK93O_RV-116" target="kP8cCrtkMhNPEK93O_RV-142" edge="1">
          <mxGeometry relative="1" as="geometry" />
        </mxCell>
        <mxCell id="kP8cCrtkMhNPEK93O_RV-116" value="0x28" style="rounded=0;whiteSpace=wrap;html=1;" parent="1" vertex="1">
          <mxGeometry x="618" y="990" width="60" height="60" as="geometry" />
        </mxCell>
        <mxCell id="kP8cCrtkMhNPEK93O_RV-117" value="&lt;div&gt;&lt;font style=&quot;font-size: 21px;&quot;&gt;Memory&lt;/font&gt;&lt;/div&gt;(Without null pointer)" style="text;html=1;strokeColor=none;fillColor=none;align=center;verticalAlign=middle;whiteSpace=wrap;rounded=0;" parent="1" vertex="1">
          <mxGeometry x="282" y="930" width="132" height="40" as="geometry" />
        </mxCell>
        <mxCell id="kP8cCrtkMhNPEK93O_RV-118" value="1" style="text;html=1;align=center;verticalAlign=middle;resizable=0;points=[];autosize=1;strokeColor=none;fillColor=none;" parent="1" vertex="1">
          <mxGeometry x="93" y="1050" width="30" height="30" as="geometry" />
        </mxCell>
        <mxCell id="kP8cCrtkMhNPEK93O_RV-119" value="2" style="text;html=1;align=center;verticalAlign=middle;resizable=0;points=[];autosize=1;strokeColor=none;fillColor=none;" parent="1" vertex="1">
          <mxGeometry x="153" y="1050" width="30" height="30" as="geometry" />
        </mxCell>
        <mxCell id="kP8cCrtkMhNPEK93O_RV-120" value="&lt;div&gt;3&lt;/div&gt;" style="text;html=1;align=center;verticalAlign=middle;resizable=0;points=[];autosize=1;strokeColor=none;fillColor=none;" parent="1" vertex="1">
          <mxGeometry x="213" y="1050" width="30" height="30" as="geometry" />
        </mxCell>
        <mxCell id="kP8cCrtkMhNPEK93O_RV-121" value="4" style="text;html=1;align=center;verticalAlign=middle;resizable=0;points=[];autosize=1;strokeColor=none;fillColor=none;" parent="1" vertex="1">
          <mxGeometry x="273" y="1050" width="30" height="30" as="geometry" />
        </mxCell>
        <mxCell id="kP8cCrtkMhNPEK93O_RV-122" value="5" style="text;html=1;align=center;verticalAlign=middle;resizable=0;points=[];autosize=1;strokeColor=none;fillColor=none;" parent="1" vertex="1">
          <mxGeometry x="333" y="1050" width="30" height="30" as="geometry" />
        </mxCell>
        <mxCell id="kP8cCrtkMhNPEK93O_RV-123" value="6" style="text;html=1;align=center;verticalAlign=middle;resizable=0;points=[];autosize=1;strokeColor=none;fillColor=none;" parent="1" vertex="1">
          <mxGeometry x="393" y="1050" width="30" height="30" as="geometry" />
        </mxCell>
        <mxCell id="kP8cCrtkMhNPEK93O_RV-124" value="7" style="text;html=1;align=center;verticalAlign=middle;resizable=0;points=[];autosize=1;strokeColor=none;fillColor=none;" parent="1" vertex="1">
          <mxGeometry x="453" y="1050" width="30" height="30" as="geometry" />
        </mxCell>
        <mxCell id="kP8cCrtkMhNPEK93O_RV-125" value="8" style="text;html=1;align=center;verticalAlign=middle;resizable=0;points=[];autosize=1;strokeColor=none;fillColor=none;" parent="1" vertex="1">
          <mxGeometry x="513" y="1050" width="30" height="30" as="geometry" />
        </mxCell>
        <mxCell id="kP8cCrtkMhNPEK93O_RV-126" value="9" style="text;html=1;align=center;verticalAlign=middle;resizable=0;points=[];autosize=1;strokeColor=none;fillColor=none;" parent="1" vertex="1">
          <mxGeometry x="573" y="1050" width="30" height="30" as="geometry" />
        </mxCell>
        <mxCell id="kP8cCrtkMhNPEK93O_RV-127" value="A" style="text;html=1;align=center;verticalAlign=middle;resizable=0;points=[];autosize=1;strokeColor=none;fillColor=none;" parent="1" vertex="1">
          <mxGeometry x="633" y="1050" width="30" height="30" as="geometry" />
        </mxCell>
        <mxCell id="kP8cCrtkMhNPEK93O_RV-128" value="0x34" style="rounded=0;whiteSpace=wrap;html=1;" parent="1" vertex="1">
          <mxGeometry x="18" y="990" width="60" height="60" as="geometry" />
        </mxCell>
        <mxCell id="kP8cCrtkMhNPEK93O_RV-129" value="0" style="text;html=1;align=center;verticalAlign=middle;resizable=0;points=[];autosize=1;strokeColor=none;fillColor=none;" parent="1" vertex="1">
          <mxGeometry x="33" y="1050" width="30" height="30" as="geometry" />
        </mxCell>
        <mxCell id="kP8cCrtkMhNPEK93O_RV-130" value="0x65" style="rounded=0;whiteSpace=wrap;html=1;" parent="1" vertex="1">
          <mxGeometry x="78" y="1160" width="60" height="60" as="geometry" />
        </mxCell>
        <mxCell id="kP8cCrtkMhNPEK93O_RV-131" value="&lt;div&gt;H&lt;/div&gt;0x48" style="rounded=0;whiteSpace=wrap;html=1;" parent="1" vertex="1">
          <mxGeometry x="198" y="1160" width="60" height="60" as="geometry" />
        </mxCell>
        <mxCell id="kP8cCrtkMhNPEK93O_RV-132" value="&lt;div&gt;E&lt;/div&gt;0x45" style="rounded=0;whiteSpace=wrap;html=1;" parent="1" vertex="1">
          <mxGeometry x="258" y="1160" width="60" height="60" as="geometry" />
        </mxCell>
        <mxCell id="kP8cCrtkMhNPEK93O_RV-133" value="&lt;div&gt;L&lt;/div&gt;0x4C" style="rounded=0;whiteSpace=wrap;html=1;" parent="1" vertex="1">
          <mxGeometry x="318" y="1160" width="60" height="60" as="geometry" />
        </mxCell>
        <mxCell id="kP8cCrtkMhNPEK93O_RV-134" value="&lt;div&gt;L&lt;/div&gt;0x4C" style="rounded=0;whiteSpace=wrap;html=1;" parent="1" vertex="1">
          <mxGeometry x="378" y="1160" width="60" height="60" as="geometry" />
        </mxCell>
        <mxCell id="kP8cCrtkMhNPEK93O_RV-135" value="&lt;div&gt;O&lt;/div&gt;0x4F" style="rounded=0;whiteSpace=wrap;html=1;" parent="1" vertex="1">
          <mxGeometry x="438" y="1160" width="60" height="60" as="geometry" />
        </mxCell>
        <mxCell id="kP8cCrtkMhNPEK93O_RV-136" value="&lt;br&gt;&lt;div&gt;0x00&lt;br&gt;&lt;/div&gt;" style="rounded=0;whiteSpace=wrap;html=1;" parent="1" vertex="1">
          <mxGeometry x="498" y="1160" width="60" height="60" as="geometry" />
        </mxCell>
        <mxCell id="kP8cCrtkMhNPEK93O_RV-137" value="0xBB" style="rounded=0;whiteSpace=wrap;html=1;" parent="1" vertex="1">
          <mxGeometry x="138" y="990" width="60" height="60" as="geometry" />
        </mxCell>
        <mxCell id="kP8cCrtkMhNPEK93O_RV-138" value="0x5F" style="rounded=0;whiteSpace=wrap;html=1;" parent="1" vertex="1">
          <mxGeometry x="558" y="1160" width="60" height="60" as="geometry" />
        </mxCell>
        <mxCell id="kP8cCrtkMhNPEK93O_RV-145" style="edgeStyle=orthogonalEdgeStyle;rounded=0;orthogonalLoop=1;jettySize=auto;html=1;entryX=0;entryY=0.5;entryDx=0;entryDy=0;" parent="1" source="kP8cCrtkMhNPEK93O_RV-139" target="kP8cCrtkMhNPEK93O_RV-144" edge="1">
          <mxGeometry relative="1" as="geometry" />
        </mxCell>
        <mxCell id="kP8cCrtkMhNPEK93O_RV-139" value="0x28" style="rounded=0;whiteSpace=wrap;html=1;" parent="1" vertex="1">
          <mxGeometry x="618" y="1160" width="60" height="60" as="geometry" />
        </mxCell>
        <mxCell id="kP8cCrtkMhNPEK93O_RV-140" value="&lt;div&gt;&lt;font style=&quot;font-size: 21px;&quot;&gt;Memory&lt;/font&gt;&lt;/div&gt;(With null pointer)" style="text;html=1;strokeColor=none;fillColor=none;align=center;verticalAlign=middle;whiteSpace=wrap;rounded=0;" parent="1" vertex="1">
          <mxGeometry x="282" y="1100" width="132" height="40" as="geometry" />
        </mxCell>
        <mxCell id="kP8cCrtkMhNPEK93O_RV-141" value="0x34" style="rounded=0;whiteSpace=wrap;html=1;" parent="1" vertex="1">
          <mxGeometry x="18" y="1160" width="60" height="60" as="geometry" />
        </mxCell>
        <mxCell id="kP8cCrtkMhNPEK93O_RV-142" value="Likely segmentation (memory errors, iteration errors)" style="rounded=0;whiteSpace=wrap;html=1;" parent="1" vertex="1">
          <mxGeometry x="780" y="990" width="120" height="60" as="geometry" />
        </mxCell>
        <mxCell id="kP8cCrtkMhNPEK93O_RV-144" value="No segmentation/ iteration faults, happy life" style="rounded=0;whiteSpace=wrap;html=1;" parent="1" vertex="1">
          <mxGeometry x="780" y="1160" width="120" height="60" as="geometry" />
        </mxCell>
        <mxCell id="kP8cCrtkMhNPEK93O_RV-147" value="&lt;font style=&quot;font-size: 15px;&quot;&gt;Standard string defenition&lt;br&gt;&lt;/font&gt;" style="text;html=1;strokeColor=none;fillColor=none;align=center;verticalAlign=middle;whiteSpace=wrap;rounded=0;" parent="1" vertex="1">
          <mxGeometry x="345" y="-300" width="180" height="30" as="geometry" />
        </mxCell>
        <mxCell id="kP8cCrtkMhNPEK93O_RV-149" value="" style="endArrow=classic;html=1;rounded=0;" parent="1" edge="1">
          <mxGeometry width="50" height="50" relative="1" as="geometry">
            <mxPoint x="560" y="940" as="sourcePoint" />
            <mxPoint x="500" y="980" as="targetPoint" />
          </mxGeometry>
        </mxCell>
        <mxCell id="kP8cCrtkMhNPEK93O_RV-150" value="No clear end of string" style="rounded=0;whiteSpace=wrap;html=1;" parent="1" vertex="1">
          <mxGeometry x="558" y="910" width="120" height="60" as="geometry" />
        </mxCell>
        <mxCell id="fdZSuUxOMTJehN9d9mFn-1" value="1" style="text;html=1;align=center;verticalAlign=middle;resizable=0;points=[];autosize=1;strokeColor=none;fillColor=none;" parent="1" vertex="1">
          <mxGeometry x="93" y="1220" width="30" height="30" as="geometry" />
        </mxCell>
        <mxCell id="fdZSuUxOMTJehN9d9mFn-2" value="2" style="text;html=1;align=center;verticalAlign=middle;resizable=0;points=[];autosize=1;strokeColor=none;fillColor=none;" parent="1" vertex="1">
          <mxGeometry x="153" y="1220" width="30" height="30" as="geometry" />
        </mxCell>
        <mxCell id="fdZSuUxOMTJehN9d9mFn-3" value="&lt;div&gt;3&lt;/div&gt;" style="text;html=1;align=center;verticalAlign=middle;resizable=0;points=[];autosize=1;strokeColor=none;fillColor=none;" parent="1" vertex="1">
          <mxGeometry x="213" y="1220" width="30" height="30" as="geometry" />
        </mxCell>
        <mxCell id="fdZSuUxOMTJehN9d9mFn-4" value="4" style="text;html=1;align=center;verticalAlign=middle;resizable=0;points=[];autosize=1;strokeColor=none;fillColor=none;" parent="1" vertex="1">
          <mxGeometry x="273" y="1220" width="30" height="30" as="geometry" />
        </mxCell>
        <mxCell id="fdZSuUxOMTJehN9d9mFn-5" value="5" style="text;html=1;align=center;verticalAlign=middle;resizable=0;points=[];autosize=1;strokeColor=none;fillColor=none;" parent="1" vertex="1">
          <mxGeometry x="333" y="1220" width="30" height="30" as="geometry" />
        </mxCell>
        <mxCell id="fdZSuUxOMTJehN9d9mFn-6" value="6" style="text;html=1;align=center;verticalAlign=middle;resizable=0;points=[];autosize=1;strokeColor=none;fillColor=none;" parent="1" vertex="1">
          <mxGeometry x="393" y="1220" width="30" height="30" as="geometry" />
        </mxCell>
        <mxCell id="fdZSuUxOMTJehN9d9mFn-7" value="7" style="text;html=1;align=center;verticalAlign=middle;resizable=0;points=[];autosize=1;strokeColor=none;fillColor=none;" parent="1" vertex="1">
          <mxGeometry x="453" y="1220" width="30" height="30" as="geometry" />
        </mxCell>
        <mxCell id="fdZSuUxOMTJehN9d9mFn-8" value="8" style="text;html=1;align=center;verticalAlign=middle;resizable=0;points=[];autosize=1;strokeColor=none;fillColor=none;" parent="1" vertex="1">
          <mxGeometry x="513" y="1220" width="30" height="30" as="geometry" />
        </mxCell>
        <mxCell id="fdZSuUxOMTJehN9d9mFn-9" value="9" style="text;html=1;align=center;verticalAlign=middle;resizable=0;points=[];autosize=1;strokeColor=none;fillColor=none;" parent="1" vertex="1">
          <mxGeometry x="573" y="1220" width="30" height="30" as="geometry" />
        </mxCell>
        <mxCell id="fdZSuUxOMTJehN9d9mFn-10" value="A" style="text;html=1;align=center;verticalAlign=middle;resizable=0;points=[];autosize=1;strokeColor=none;fillColor=none;" parent="1" vertex="1">
          <mxGeometry x="633" y="1220" width="30" height="30" as="geometry" />
        </mxCell>
        <mxCell id="fdZSuUxOMTJehN9d9mFn-11" value="0" style="text;html=1;align=center;verticalAlign=middle;resizable=0;points=[];autosize=1;strokeColor=none;fillColor=none;" parent="1" vertex="1">
          <mxGeometry x="33" y="1220" width="30" height="30" as="geometry" />
        </mxCell>
      </root>
    </mxGraphModel>
  </diagram>
</mxfile>
